# File created by Blade
# Date/Time:  Tue Jan 27 17:01:38 2015
# Frame Rate: 120.000 fps
#------------------------------------------------------
:FULLY-SPECIFIED
:DEGREES
3502
root -0.934640 36.835764 5.796415 6.802090 6.117366 -0.155411
Spine -6.403132 12.466559 -1.917394
Head -0.113274 -0.034115 8.574964
LeftShoulder -10.010137 -3.191948 1.749859
LeftArm -2.351551 26.610404 -67.916288
LeftForeArm -8.091954 -0.000000 22.970817
LeftHand -12.340927 -0.000000 -15.800656
LeftHandThumb1 -26.253704 0.000000 33.147579
RightShoulder -4.592063 -23.690894 -0.058350
RightArm 21.612823 -27.926847 57.846135
RightForeArm -149.364953 -0.000000 30.156767
RightHand -1.907506 -0.000000 -1.954865
RightHandThumb1 -24.326973 -0.000000 -32.862282
LeftUpLeg -4.644877 9.414603 4.762219
LeftLeg 8.095723 -0.000000 -0.000000
LeftFoot -16.344293 1.286175 -21.262127
LeftToeBase 15.084447 -0.000000 -0.000000
RightUpLeg -4.714903 -11.972872 -1.145494
RightLeg 10.644071 -0.000000 -0.000000
RightFoot -18.094604 -6.672240 15.002946
RightToeBase 10.819739 -0.000000 -0.000000
3503
root -0.908506 36.837823 5.777198 6.808619 5.547796 -0.203810
Spine -6.340245 12.421695 -1.883447
Head -0.296128 -0.759145 8.887867
LeftShoulder -9.943334 -3.124943 1.671200
LeftArm -2.331577 26.852142 -69.394604
LeftForeArm -9.545126 -0.000000 22.252585
LeftHand -12.644640 -0.000000 -15.240817
LeftHandThumb1 -26.253704 0.000000 33.147579
RightShoulder -4.692832 -23.715286 0.091248
RightArm 21.561525 -27.851811 57.815546
RightForeArm -149.472251 -0.000000 30.202132
RightHand -1.918982 -0.000000 -1.743543
RightHandThumb1 -24.326973 -0.000000 -32.862282
LeftUpLeg -4.576291 9.741009 4.713808
LeftLeg 8.093720 -0.000000 -0.000000
LeftFoot -16.481563 1.472998 -21.300900
LeftToeBase 15.150975 -0.000000 -0.000000
RightUpLeg -4.829875 -11.640143 -1.187250
RightLeg 10.655162 -0.000000 -0.000000
RightFoot -17.956507 -6.486140 14.936220
RightToeBase 10.809682 -0.000000 -0.000000
3504
root -0.882715 36.838630 5.754997 6.839758 4.995422 -0.240735
Spine -6.298685 12.359055 -1.865143
Head -0.450026 -1.443770 9.172621
LeftShoulder -9.870845 -3.067211 1.602739
LeftArm -2.341547 27.076562 -70.866855
LeftForeArm -11.017737 0.000000 21.631859
LeftHand -12.927917 -0.000000 -14.713396
LeftHandThumb1 -26.253704 0.000000 33.147579
RightShoulder -4.764873 -23.730699 0.203879
RightArm 21.502489 -27.811956 57.787366
RightForeArm -149.508485 0.000000 30.241142
RightHand -2.023537 -0.000000 -1.515745
RightHandThumb1 -24.326973 -0.000000 -32.862282
LeftUpLeg -4.540214 10.034915 4.653819
LeftLeg 8.093343 -0.000000 -0.000000
LeftFoot -16.601492 1.665520 -21.340310
LeftToeBase 15.101044 -0.000000 -0.000000
RightUpLeg -4.966430 -11.365528 -1.228020
RightLeg 10.649629 -0.000000 -0.000000
RightFoot -17.814787 -6.296818 14.836760
RightToeBase 10.778621 -0.000000 -0.000000
3505
root -0.853620 36.840110 5.731357 6.890750 4.433923 -0.249320
Spine -6.293529 12.304184 -1.894489
Head -0.565544 -2.089846 9.493477
LeftShoulder -9.773372 -3.018021 1.558095
LeftArm -2.374224 27.234903 -72.332445
LeftForeArm -12.360000 0.000000 21.049632
LeftHand -12.850235 -0.000000 -14.469350
LeftHandThumb1 -26.253704 0.000000 33.147579
RightShoulder -4.825494 -23.789096 0.318927
RightArm 21.505064 -27.771621 57.746596
RightForeArm -149.479384 -0.000000 30.238819
RightHand -2.015542 -0.000000 -1.482054
RightHandThumb1 -24.326973 -0.000000 -32.862282
LeftUpLeg -4.532676 10.327088 4.550681
LeftLeg 8.110431 -0.000000 -0.000000
LeftFoot -16.728545 1.897410 -21.359526
LeftToeBase 15.078555 -0.000000 -0.000000
RightUpLeg -5.132126 -11.086139 -1.301226
RightLeg 10.664252 -0.000000 -0.000000
RightFoot -17.692368 -6.093086 14.742035
RightToeBase 10.788702 -0.000000 -0.000000
3506
root -0.830986 36.841432 5.710294 6.919343 3.935376 -0.270532
Spine -6.253636 12.179646 -1.916069
Head -0.706231 -2.670690 9.810965
LeftShoulder -9.679584 -3.021420 1.531491
LeftArm -2.433179 27.458935 -73.771466
LeftForeArm -13.850489 0.000000 20.569161
LeftHand -12.845148 -0.000000 -13.800207
LeftHandThumb1 -26.253704 0.000000 33.147579
RightShoulder -4.879965 -23.816695 0.424064
RightArm 21.500965 -27.805694 57.695794
RightForeArm -149.362540 0.000000 30.264760
RightHand -1.915769 -0.000000 -1.361440
RightHandThumb1 -24.326973 -0.000000 -32.862282
LeftUpLeg -4.519057 10.605701 4.482509
LeftLeg 8.144917 -0.000000 -0.000000
LeftFoot -16.847483 2.065255 -21.388590
LeftToeBase 15.113536 -0.000000 -0.000000
RightUpLeg -5.252195 -10.855421 -1.348292
RightLeg 10.648345 -0.000000 -0.000000
RightFoot -17.574014 -5.908114 14.652451
RightToeBase 10.825811 -0.000000 -0.000000
3507
root -0.806157 36.842998 5.690001 6.958410 3.442203 -0.288056
Spine -6.217625 12.086395 -1.924921
Head -0.866602 -3.237845 10.083029
LeftShoulder -9.569253 -2.974766 1.425894
LeftArm -2.388237 27.906204 -75.028549
LeftForeArm -14.912775 -0.000000 20.260009
LeftHand -12.855058 -0.000000 -13.874046
LeftHandThumb1 -26.253704 0.000000 33.147579
RightShoulder -4.950436 -23.822992 0.499029
RightArm 21.443572 -27.832708 57.704422
RightForeArm -149.453153 -0.000000 30.277906
RightHand -1.999334 -0.000000 -1.365826
RightHandThumb1 -24.326973 -0.000000 -32.862282
LeftUpLeg -4.512699 10.838497 4.406433
LeftLeg 8.171573 -0.000000 -0.000000
LeftFoot -16.965645 2.271644 -21.417510
LeftToeBase 15.078577 -0.000000 -0.000000
RightUpLeg -5.385980 -10.632875 -1.401906
RightLeg 10.642215 -0.000000 -0.000000
RightFoot -17.446317 -5.715048 14.565576
RightToeBase 10.867899 -0.000000 -0.000000
